<svg xmlns="http://www.w3.org/2000/svg" viewBox="0 0 604.46 330.01"><defs><style>.cls-1{fill:#f2b520;}</style></defs><title>seal-flat</title><g id="Layer_2" data-name="Layer 2"><g id="Layer_1-2" data-name="Layer 1"><path class="cls-1" d="M302.23,0,604.46,165,302.23,330,0,165ZM27.77,165,302.23,310.81,574,165,302.23,16.41Z"/><polygon points="302.23 16.41 574.04 164.96 302.23 310.81 27.77 164.96 302.23 16.41"/><path class="cls-1" d="M288.7,48.87V48h11.7v.9h-1.24a3.36,3.36,0,0,0-3,1.63,7.52,7.52,0,0,0-.51,3.51V67.42a23.63,23.63,0,0,1-1,7.71,9.69,9.69,0,0,1-3.88,4.71,13.85,13.85,0,0,1-7.86,2q-5.4,0-8.21-1.88a10.14,10.14,0,0,1-4-5q-.78-2.17-.78-8.14V53.82c0-2-.28-3.37-.84-4a3.49,3.49,0,0,0-2.72-1h-1.24V48h14.28v.9h-1.27a3.27,3.27,0,0,0-2.92,1.29,7.18,7.18,0,0,0-.61,3.66v14.4a30.86,30.86,0,0,0,.35,4.41,9.45,9.45,0,0,0,1.28,3.88,7,7,0,0,0,2.67,2.29,9.25,9.25,0,0,0,4.28.9,11.83,11.83,0,0,0,5.8-1.41,7.55,7.55,0,0,0,3.49-3.62q.94-2.2.94-7.47V53.82c0-2.07-.22-3.36-.68-3.88a3.6,3.6,0,0,0-2.83-1.07Z"/><path class="cls-1" d="M311.17,65.54v9.63q0,3.12.69,3.87a3.48,3.48,0,0,0,2.8,1.08h1.27V81H301.76v-.9H303a3.32,3.32,0,0,0,3-1.37,7.94,7.94,0,0,0,.49-3.58V53.82c0-2.08-.22-3.37-.65-3.88A3.61,3.61,0,0,0,303,48.87h-1.25V48h12.12a21.39,21.39,0,0,1,7,.91A9.67,9.67,0,0,1,325.19,52a7.93,7.93,0,0,1,1.75,5.15,8.66,8.66,0,0,1-2.67,6.58q-2.67,2.53-7.54,2.53a19.92,19.92,0,0,1-2.58-.17C313.22,65.94,312.23,65.77,311.17,65.54Zm0-1.39c.86.16,1.63.29,2.29.37a14.78,14.78,0,0,0,1.71.12,5.77,5.77,0,0,0,4.37-2,7.12,7.12,0,0,0,1.85-5.08,9.24,9.24,0,0,0-.88-4A6,6,0,0,0,318,50.86a7.25,7.25,0,0,0-3.65-.92,14.47,14.47,0,0,0-3.2.47Z"/><path class="cls-1" d="M240.32,210.25H165.74v-2.7L204,161.7l-38.24-48V111.1h72.32l2.26,24.72h-3q-1.09-10.09-5.59-14.41t-13-4.31H184.68l31.22,39.26L180.73,198.7h38.75q9.72,0,14.59-3.65t8.08-13.75l2.71.58Z"/><path class="cls-1" d="M339.92,210.25H252.17l45.92-101.42Zm-17.26-6-29.18-70.71-32.17,70.71Z"/><path class="cls-1" d="M406,196.22q.21,6.36,2.34,8.33,3.08,2.92,8.41,2.93l3.73.07v2.7h-43v-2.7h3.95c3.61,0,6.27-.88,8-2.63s2.59-4.66,2.59-8.7q-15.65-.66-24.79-4.39a31.48,31.48,0,0,1-14.62-12,33.75,33.75,0,0,1-5.49-19.19,34.7,34.7,0,0,1,4.1-17A30.77,30.77,0,0,1,359.8,134a37.22,37.22,0,0,1,11.27-5.81q8.12-2.49,21-3-.07-6.28-2.19-8.34-3.08-3-8.41-3H377.5V111.1h43v2.71h-3.73q-5.34,0-7.94,2.59T406,125.07q16.31,1,25.3,4.82a31,31,0,0,1,14.26,12,33.94,33.94,0,0,1,5.26,18.83,34.29,34.29,0,0,1-5,18.46,31.56,31.56,0,0,1-14.55,12.29Q421.74,195.63,406,196.22Zm-14-4.17V129.38q-10.46.38-16.82,4a22.7,22.7,0,0,0-9.65,11,39.85,39.85,0,0,0-3.29,16.31q0,13.74,6.8,22.3T392,192.05Zm14,0q14.4-.15,22-8t7.6-23.36q0-15.44-7.6-23.29t-22-8Z"/><path class="cls-1" d="M252,245.27l8-3.93h.8v27.93a14.93,14.93,0,0,0,.23,3.44,1.81,1.81,0,0,0,1,1.05,8.26,8.26,0,0,0,3,.41v.91H252.6v-.91a8.46,8.46,0,0,0,3-.4,2,2,0,0,0,1-1.11,16.1,16.1,0,0,0,.19-3.43V251.41a27.16,27.16,0,0,0-.24-4.66,1.93,1.93,0,0,0-.64-1.12,1.7,1.7,0,0,0-1.09-.36,6.49,6.49,0,0,0-2.49.75Z"/><path class="cls-1" d="M273.76,275.76v-.9a13.12,13.12,0,0,0,5.9-1.48,15.8,15.8,0,0,0,5.27-5,22,22,0,0,0,3.55-7.83,17.73,17.73,0,0,1-3.63,1.84,9.62,9.62,0,0,1-3.29.62,7.81,7.81,0,0,1-6-2.7,10.13,10.13,0,0,1-2.49-7.14,12.07,12.07,0,0,1,3.08-8.48,9.51,9.51,0,0,1,7.23-3.37,8.83,8.83,0,0,1,6.95,3.37A15.19,15.19,0,0,1,293.94,255a20.57,20.57,0,0,1-2.69,10.27,22.72,22.72,0,0,1-7.52,7.91,15.35,15.35,0,0,1-8.58,2.59Zm15.11-17a39,39,0,0,0,.44-5,18.44,18.44,0,0,0-.81-5.21,9.44,9.44,0,0,0-2.29-4.2,4.62,4.62,0,0,0-3.34-1.46,4.86,4.86,0,0,0-3.8,1.95q-1.63,2-1.63,5.82c0,3.41.73,6.09,2.19,8a4.67,4.67,0,0,0,3.88,2.1,8.19,8.19,0,0,0,2.65-.54A8.62,8.62,0,0,0,288.87,258.77Z"/><path class="cls-1" d="M298.62,248.31a13.4,13.4,0,0,1,3.57-5.15,8.07,8.07,0,0,1,5.37-1.82,7.46,7.46,0,0,1,6.1,2.58,6.39,6.39,0,0,1,1.58,4.1c0,2.42-1.5,4.92-4.51,7.48a9.81,9.81,0,0,1,4.61,3.43,8.9,8.9,0,0,1,1.56,5.25,11.14,11.14,0,0,1-2.54,7.24q-3.53,4.33-10.62,4.34-3.19,0-4.41-.84a2.31,2.31,0,0,1-1.22-1.84,1.67,1.67,0,0,1,.58-1.27,2,2,0,0,1,1.39-.54,4.15,4.15,0,0,1,1.22.2,13.68,13.68,0,0,1,1.87.88,13.62,13.62,0,0,0,2,.92,7.88,7.88,0,0,0,1.94.25,5.82,5.82,0,0,0,4.33-1.93,6.45,6.45,0,0,0,1.84-4.63,8.26,8.26,0,0,0-.7-3.33,7.76,7.76,0,0,0-1.49-2.38,10.32,10.32,0,0,0-2.89-1.77,9.27,9.27,0,0,0-3.77-.81h-.78v-.73a10.07,10.07,0,0,0,3.87-1.39,6.95,6.95,0,0,0,3.69-6.29,5.45,5.45,0,0,0-1.57-4.06,5.39,5.39,0,0,0-3.94-1.54c-2.5,0-4.6,1.34-6.29,4Z"/><path class="cls-1" d="M323.58,248.31a13.4,13.4,0,0,1,3.57-5.15,8.07,8.07,0,0,1,5.37-1.82,7.46,7.46,0,0,1,6.1,2.58,6.39,6.39,0,0,1,1.58,4.1c0,2.42-1.5,4.92-4.51,7.48a9.81,9.81,0,0,1,4.61,3.43,8.9,8.9,0,0,1,1.56,5.25,11.14,11.14,0,0,1-2.54,7.24c-2.35,2.89-5.9,4.34-10.62,4.34q-3.19,0-4.41-.84a2.31,2.31,0,0,1-1.22-1.84,1.67,1.67,0,0,1,.58-1.27,2,2,0,0,1,1.39-.54,4.15,4.15,0,0,1,1.22.2,13.22,13.22,0,0,1,1.86.88,14.65,14.65,0,0,0,2,.92,8,8,0,0,0,1.95.25,5.82,5.82,0,0,0,4.33-1.93,6.45,6.45,0,0,0,1.84-4.63,8.11,8.11,0,0,0-.71-3.33,7.58,7.58,0,0,0-1.48-2.38,10.32,10.32,0,0,0-2.89-1.77,9.27,9.27,0,0,0-3.77-.81h-.78v-.73a10.13,10.13,0,0,0,3.87-1.39,6.95,6.95,0,0,0,3.69-6.29,5.45,5.45,0,0,0-1.57-4.06,5.39,5.39,0,0,0-3.94-1.54c-2.5,0-4.6,1.34-6.29,4Z"/></g></g></svg>